<svg width="50" height="50" viewBox="0 0 50 50" fill="none" xmlns="http://www.w3.org/2000/svg">
<g clip-path="url(#clip0_3174_16504)">
<g clip-path="url(#clip1_3174_16504)">
<path d="M17.1575 27.2604C19.3418 27.2604 21.477 26.5779 23.2931 25.2992C25.1091 24.0204 26.5245 22.203 27.36 20.0767C28.1956 17.9504 28.4138 15.6108 27.9871 13.3538C27.5605 11.0967 26.5081 9.02376 24.963 7.39701C23.418 5.77026 21.4498 4.66283 19.3073 4.2148C17.1648 3.76676 14.9443 3.99827 12.9267 4.88001C10.9091 5.76175 9.18503 7.25412 7.97257 9.16835C6.7601 11.0826 6.11372 13.3327 6.11517 15.634C6.12098 18.717 7.28647 21.6718 9.35626 23.8511C11.4261 26.0303 14.2314 27.2563 17.1575 27.2604ZM17.1575 7.08588C18.7622 7.08588 20.3308 7.58721 21.665 8.52649C22.9993 9.46577 24.0392 10.8008 24.6533 12.3628C25.2673 13.9247 25.428 15.6435 25.115 17.3017C24.8019 18.9598 24.0292 20.483 22.8945 21.6785C21.7598 22.8739 20.3142 23.6881 18.7404 24.0179C17.1665 24.3477 15.5352 24.1784 14.0527 23.5314C12.5702 22.8844 11.303 21.7888 10.4115 20.3831C9.52001 18.9773 9.04417 17.3247 9.04417 15.634C9.04611 13.3675 9.90152 11.1945 11.4226 9.59181C12.9438 7.98917 15.0063 7.08792 17.1575 7.08588Z" fill="black"/>
<path d="M23.1766 30.1768H10.8602C9.37972 30.1768 7.9138 30.4845 6.5464 31.0823C5.17901 31.6801 3.93697 32.5563 2.89149 33.6607C1.84602 34.7651 1.01763 36.0759 0.453757 37.5182C-0.110119 38.9604 -0.398415 40.5056 -0.394562 42.0654V45.1514C-0.394562 45.2638 -0.373509 45.3752 -0.332662 45.4791C-0.291815 45.583 -0.231957 45.6774 -0.156482 45.7569C-0.0810066 45.8365 0.0085938 45.8995 0.107207 45.9426C0.20582 45.9856 0.311532 46.0077 0.418271 46.0077H1.72898C1.94328 46.0057 2.14815 45.9146 2.299 45.7542C2.44985 45.5938 2.53445 45.3772 2.53444 45.1514V42.0654C2.53444 39.739 3.41161 37.5078 4.97298 35.8628C6.53435 34.2177 8.65207 33.2936 10.8602 33.2936H23.1766C25.3847 33.2936 27.5024 34.2177 29.0638 35.8628C30.6252 37.5078 31.5023 39.739 31.5023 42.0654V44.7888C31.5023 45.0146 31.5869 45.2313 31.7378 45.3916C31.8886 45.552 32.0935 45.6431 32.3078 45.6452H33.6185C33.8341 45.6452 34.0408 45.5549 34.1933 45.3943C34.3457 45.2337 34.4313 45.0159 34.4313 44.7888V42.0654C34.4352 40.5056 34.1469 38.9604 33.583 37.5182C33.0191 36.0759 32.1908 34.7651 31.1453 33.6607C30.0998 32.5563 28.8578 31.6801 27.4904 31.0823C26.123 30.4845 24.6571 30.1768 23.1766 30.1768Z" fill="black"/>
<path d="M28.3463 6.84681C28.4011 6.92251 28.4707 6.98504 28.5502 7.03026C28.6297 7.07549 28.7175 7.10237 28.8076 7.10911C30.8694 7.23987 32.8061 8.19496 34.2221 9.77934C35.6381 11.3637 36.4266 13.4579 36.4266 15.6341C36.4266 17.8103 35.6381 19.9045 34.2221 21.4888C32.8061 23.0732 30.8694 24.0283 28.8076 24.1591C28.7176 24.1628 28.6296 24.1876 28.5498 24.2317C28.47 24.2757 28.4005 24.3379 28.3463 24.4137C27.9301 24.9998 27.475 25.5541 26.9843 26.0724C26.8959 26.1615 26.834 26.2758 26.8062 26.4013C26.7784 26.5269 26.7859 26.6583 26.8279 26.7794C26.8698 26.9005 26.9443 27.0062 27.0423 27.0834C27.1404 27.1606 27.2576 27.2061 27.3798 27.2142C28.937 27.3638 30.5064 27.1531 31.9783 26.597C34.4373 25.6879 36.5116 23.8913 37.8338 21.5252C39.156 19.1592 39.6408 16.3765 39.2023 13.67C38.7638 10.9635 37.4303 8.50779 35.4379 6.73789C33.4456 4.968 30.923 3.99811 28.317 4C27.9851 4 27.6629 4.01543 27.3505 4.04629C27.2289 4.05577 27.1126 4.10221 27.0157 4.17995C26.9187 4.25769 26.8452 4.36341 26.8041 4.48428C26.763 4.60515 26.7561 4.73596 26.7842 4.86089C26.8123 4.98582 26.8742 5.0995 26.9624 5.18811C27.4606 5.70556 27.9231 6.25987 28.3463 6.84681Z" fill="black"/>
<path d="M34.3581 30.1769H33.7796C33.6242 30.1612 33.4681 30.1982 33.3341 30.2825C33.2001 30.3669 33.0952 30.4942 33.0347 30.6458C32.9742 30.7974 32.9613 30.9654 32.9978 31.1253C33.0343 31.2852 33.1184 31.4286 33.2378 31.5347C33.6676 31.995 34.0711 32.4819 34.4459 32.9928C34.5096 33.0826 34.591 33.1568 34.6846 33.21C34.7782 33.2633 34.8816 33.2945 34.9878 33.3014C37.0785 33.4746 39.0297 34.4742 40.4502 36.0996C41.8707 37.725 42.6555 39.8561 42.6472 42.0655V44.7889C42.6472 45.016 42.7328 45.2338 42.8852 45.3944C43.0377 45.555 43.2444 45.6453 43.46 45.6453H44.7707C44.985 45.6432 45.1898 45.5521 45.3407 45.3917C45.4915 45.2314 45.5762 45.0147 45.5762 44.7889V42.0655C45.581 40.5087 45.2946 38.9661 44.7333 37.526C44.1721 36.0858 43.347 34.7763 42.3052 33.6722C41.2634 32.5681 40.0254 31.6912 38.6618 31.0914C37.2982 30.4917 35.8357 30.1809 34.3581 30.1769Z" fill="black"/>
</g>
</g>
<defs>
<clipPath id="clip0_3174_16504">
<rect width="50" height="50" fill="white"/>
</clipPath>
<clipPath id="clip1_3174_16504">
<rect width="46" height="42" fill="white" transform="translate(-0.394531 4)"/>
</clipPath>
</defs>
</svg>
